<svg xmlns="http://www.w3.org/2000/svg" xmlns:svg="http://www.w3.org/2000/svg" xmlns:xlink="http://www.w3.org/1999/xlink" id="svg2" width="16" height="16" version="1.1"><defs id="defs4"><linearGradient id="linearGradient824" x1="49.195" x2="1067.241" y1="515.033" y2="516.85" gradientTransform="translate(3.1645847,-12.821913)" gradientUnits="userSpaceOnUse" xlink:href="#linearGradient822"/><linearGradient id="linearGradient822"><stop style="stop-color:#d300dc;stop-opacity:1" id="stop818" offset="0"/><stop style="stop-color:#8700ff;stop-opacity:1" id="stop820" offset="1"/></linearGradient></defs><metadata id="metadata7"/><g id="layer1" transform="translate(-671.14288,-648.57648)"><g id="g4090" transform="matrix(0.1265625,0,0,-0.1265625,672.07092,663.09636)"><g id="g4092" transform="scale(0.1,0.1)"><path id="path4289" d="m 565.94519,-50.875303 c 305.456,0 553.08141,247.625793 553.08141,553.085743 0,305.46122 -247.62541,553.08676 -553.08141,553.08676 -305.4651,0 -553.091405,-247.62554 -553.091405,-553.08676 0,-305.45995 247.626305,-553.085743 553.091405,-553.085743" style="fill:#b800d2;fill-opacity:1;fill-rule:evenodd;stroke:none;stroke-width:1"/><path id="path4291" d="m 565.94299,-11.369763 c 283.64076,0 513.57741,229.941723 513.57741,513.582483 0,283.64206 -229.93665,513.57888 -513.57741,513.57888 -283.646,0 -513.583005,-229.93682 -513.583005,-513.57888 0,-283.64076 229.937005,-513.582483 513.583005,-513.582483" style="fill:url(#linearGradient824);fill-opacity:1;fill-rule:evenodd;stroke:none;stroke-width:1"/><g id="g4147" transform="matrix(1.3132489,0,0,1.3132489,-9.8625362,-52.033006)" style="fill:#432f52;fill-opacity:1"><path style="fill:#432f52;fill-opacity:1;fill-rule:evenodd;stroke:none" id="path4293" d="m 317.36351,650.00117 267.199,0 c 35.579,0 64.692,-29.113 64.692,-64.695 l 0,-267.196 -331.891,331.891 z m 232.324,-436.211 -268.253,0 c -35.583,0 -64.692,29.109 -64.692,64.691 l 0,268.254 332.945,-332.945"/></g></g></g></g></svg>